<?xml version="1.0" encoding="utf-8"?>
<!-- Generator: Adobe Illustrator 27.2.0, SVG Export Plug-In . SVG Version: 6.00 Build 0)  -->
<svg version="1.1" id="Layer_1" xmlns="http://www.w3.org/2000/svg" xmlns:xlink="http://www.w3.org/1999/xlink" x="0px" y="0px"
	 viewBox="0 0 800 800" style="enable-background:new 0 0 800 800;" xml:space="preserve">
<style type="text/css">
	.st0{fill-rule:evenodd;clip-rule:evenodd;}
</style>
<g id="Page-1">
	<g id="Icon-Set-Filled">
		<path id="bullet-list" class="st0" d="M744.8,565.5H303.5c-30.5,0-55.2,24.7-55.2,55.2s24.7,55.2,55.2,55.2h441.4
			c30.5,0,55.2-24.7,55.2-55.2S775.3,565.5,744.8,565.5L744.8,565.5L744.8,565.5z M744.8,344.8H303.5c-30.5,0-55.2,24.7-55.2,55.2
			s24.7,55.2,55.2,55.2h441.4c30.5,0,55.2-24.7,55.2-55.2S775.3,344.8,744.8,344.8L744.8,344.8L744.8,344.8z M303.5,234.5h441.4
			c30.5,0,55.2-24.7,55.2-55.2s-24.7-55.2-55.2-55.2H303.5c-30.5,0-55.2,24.7-55.2,55.2S273,234.5,303.5,234.5L303.5,234.5z
			 M82.8,537.9C37.1,537.9,0,575,0,620.7s37,82.8,82.8,82.8s82.8-37,82.8-82.8S128.5,537.9,82.8,537.9L82.8,537.9z M82.8,317.2
			C37,317.2,0,354.3,0,400s37,82.8,82.8,82.8s82.8-37,82.8-82.8S128.5,317.2,82.8,317.2L82.8,317.2z M82.8,96.5
			C37,96.5,0,133.6,0,179.3s37,82.8,82.8,82.8s82.8-37.1,82.8-82.8S128.5,96.5,82.8,96.5L82.8,96.5z"/>
	</g>
</g>
</svg>
