<?xml version="1.0" encoding="utf-8"?>
<!-- Generator: Adobe Illustrator 26.0.1, SVG Export Plug-In . SVG Version: 6.00 Build 0)  -->
<svg version="1.1" id="Layer_1" xmlns="http://www.w3.org/2000/svg" xmlns:xlink="http://www.w3.org/1999/xlink" x="0px" y="0px"
	 viewBox="0 0 512 512" style="enable-background:new 0 0 512 512;" xml:space="preserve">
<style type="text/css">
	.st0{fill:#FFFFFF;}
	.st1{fill:none;}
</style>
<circle class="st0" cx="134.4" cy="161.5" r="40.5"/>
<g>
	<path class="st1" d="M306.7,90.6H205.3c-5.6,0-10.1-4.5-10.1-10.1V60.2c0-5.6,4.5-10.1,10.1-10.1h101.3c5.6,0,10.1,4.5,10.1,10.1
		v20.3C316.8,86,312.3,90.6,306.7,90.6z"/>
	<path class="st1" d="M489.1,435.2H22.9c-5.6,0-10.1-4.5-10.1-10.1v-20.3c0-5.6,4.5-10.1,10.1-10.1h466.2c5.6,0,10.1,4.5,10.1,10.1
		V425C499.2,430.6,494.7,435.2,489.1,435.2z"/>
</g>
<path d="M408.8,159c-5.6-5.6-13.1-8.7-21.1-8.7s-15.4,3.1-21.1,8.7L218.9,306.8c-3.7,3.7-3.7,9.7,0,13.4c3.7,3.7,9.7,3.7,13.4,0
	l147.8-147.8c2-2,4.7-3.2,7.6-3.2c2.9,0,5.6,1.1,7.6,3.2l33.6,33.6v138.6H96.5l141.7-141.7c2-2,4.7-3.2,7.6-3.2
	c2.9,0,5.6,1.1,7.6,3.2l16.1,16.1c3.7,3.7,9.7,3.7,13.4,0c3.7-3.7,3.7-9.7,0-13.4l-16.1-16.1c-5.6-5.6-13.1-8.7-21.1-8.7
	c-8,0-15.4,3.1-21.1,8.7l-158,158c-2.7,2.7-3.5,6.8-2.1,10.4c1.5,3.5,4.9,5.9,8.8,5.9h364.8c5.2,0,9.5-4.3,9.5-9.5v-152
	c0-2.5-1-4.9-2.8-6.7L408.8,159z"/>
<path d="M134.4,211.6c27.6,0,50-22.4,50-50s-22.4-50-50-50s-50,22.4-50,50S106.8,211.6,134.4,211.6z M134.4,130.5
	c17.1,0,31,13.9,31,31c0,17.1-13.9,31-31,31s-31-13.9-31-31S117.3,130.5,134.4,130.5z"/>
<path d="M489.1,385.1h-0.6V80.4c0-10.8-8.8-19.6-19.6-19.6H326.3v-0.6c0-10.8-8.8-19.6-19.6-19.6h-20.9V19.6
	C285.8,8.8,277,0,266.1,0h-20.3c-10.8,0-19.6,8.8-19.6,19.6v20.9h-20.9c-10.8,0-19.6,8.8-19.6,19.6v0.6H43.2
	c-10.8,0-19.6,8.8-19.6,19.6v304.7h-0.6c-10.8,0-19.6,8.8-19.6,19.6V425c0,10.8,8.8,19.6,19.6,19.6h59.5l-28.3,56.1
	c-1,5.2,2.4,10.1,7.6,11.1c0.6,0.1,1.2,0.2,1.8,0.2c4.5,0,8.5-3.2,9.3-7.8l29-59.6h21.2l-28.3,56.1c-1,5.2,2.4,10.1,7.6,11.1
	c0.6,0.1,1.2,0.2,1.8,0.2c4.5,0,8.5-3.2,9.3-7.8l29-59.6l84,0.1l0,57.8c0,5.2,4.3,9.5,9.5,9.5c5.2,0,9.5-4.3,9.5-9.5v-57.8h21.5
	v57.8c0,5.2,4.3,9.5,9.5,9.5c5.2,0,9.5-4.3,9.5-9.5v-57.8h84.1l28.8,59.6c0.9,4.6,4.8,7.8,9.3,7.8c0.6,0,1.2-0.1,1.8-0.2
	c5.2-1,8.6-5.9,7.6-11.1l-28.3-56.1h21.2l29,59.6c0.9,4.6,4.8,7.8,9.3,7.8c0.6,0,1.2-0.1,1.8-0.2c5.2-1,8.6-5.9,7.6-11.1l-28.3-56.1
	h59.5c10.8,0,19.6-8.8,19.6-19.6v-20.3C508.7,393.9,499.9,385.1,489.1,385.1z M245.2,19.6c0-0.3,0.3-0.6,0.6-0.6h20.3
	c0.3,0,0.6,0.3,0.6,0.6v20.9h-21.5L245.2,19.6L245.2,19.6z M204.7,60.2c0-0.3,0.3-0.6,0.6-0.6h101.3c0.3,0,0.6,0.3,0.6,0.6v20.3
	c0,0.3-0.3,0.6-0.6,0.6H205.3c-0.3,0-0.6-0.3-0.6-0.6V60.2z M42.5,80.4c0-0.3,0.3-0.6,0.6-0.6h142.5v0.6c0,10.8,8.8,19.6,19.6,19.6
	h101.3c10.8,0,19.6-8.8,19.6-19.6v-0.6h142.5c0.3,0,0.6,0.3,0.6,0.6v304.7H42.5C42.5,385.1,42.5,80.4,42.5,80.4z M489.7,425
	c0,0.3-0.3,0.6-0.6,0.6H22.9c-0.3,0-0.6-0.3-0.6-0.6v-20.3c0-0.3,0.3-0.6,0.6-0.6h466.2c0.3,0,0.6,0.3,0.6,0.6V425z"/>
</svg>
