<?xml version="1.0" encoding="utf-8"?>
<!-- Generator: Adobe Illustrator 26.0.1, SVG Export Plug-In . SVG Version: 6.00 Build 0)  -->
<svg version="1.1" xmlns="http://www.w3.org/2000/svg" xmlns:xlink="http://www.w3.org/1999/xlink" x="0px" y="0px"
	 viewBox="0 0 240 240" style="enable-background:new 0 0 240 240;" xml:space="preserve">
<style type="text/css">
	.st0{fill:none;stroke:#000000;stroke-width:16;stroke-linecap:round;stroke-miterlimit:10;}
	.st1{fill:#FFFFFF;}
	.st2{fill:none;stroke:#FFFFFF;stroke-width:15;stroke-miterlimit:10;}
</style>
<g id="Calque_4">
</g>
<g id="Calque_2">
	<line class="st0" x1="209.9" y1="39.2" x2="32.7" y2="39.2"/>
	<line class="st0" x1="209.9" y1="79.6" x2="32.7" y2="79.6"/>
	<line class="st0" x1="209.9" y1="120" x2="32.7" y2="120"/>
	<line class="st0" x1="209.9" y1="160.4" x2="32.7" y2="160.4"/>
	<line class="st0" x1="209.9" y1="200.8" x2="32.7" y2="200.8"/>
	<g>
		<path d="M228,12v216H12V12H228 M240,0H0v240h240V0L240,0z"/>
	</g>
</g>
<g id="Calque_1">
	<g>
		<rect x="-6" y="-6" width="112" height="252"/>
		<path class="st1" d="M100,0v240H0V0H100 M112-12h-12H0h-12V0v240v12H0h100h12v-12V0V-12L112-12z"/>
	</g>
</g>
<g id="Calque_3">
	<g>
		<g>
			<line class="st2" x1="11.4" y1="120" x2="59.9" y2="120"/>
			<g>
				<polygon class="st1" points="54,140.2 89,120 54,99.8 				"/>
			</g>
		</g>
	</g>
</g>
</svg>
