<?xml version="1.0" encoding="utf-8"?>
<!-- Generator: Adobe Illustrator 26.0.1, SVG Export Plug-In . SVG Version: 6.00 Build 0)  -->
<svg version="1.1" xmlns="http://www.w3.org/2000/svg" xmlns:xlink="http://www.w3.org/1999/xlink" x="0px" y="0px"
	 viewBox="0 0 240 240" style="enable-background:new 0 0 240 240;" xml:space="preserve">
<style type="text/css">
	.st0{fill:none;stroke:#B2B2B2;stroke-width:12;stroke-linejoin:round;stroke-miterlimit:10;}
	.st1{fill:#B2B2B2;}
</style>
<g id="Calque_1">
	<line class="st0" x1="0.1" y1="5.9" x2="147.1" y2="5.9"/>
	<line class="st0" x1="0.1" y1="77" x2="125.9" y2="77"/>
	<line class="st0" x1="0.1" y1="143.6" x2="137.3" y2="143.6"/>
	<line class="st0" x1="0.1" y1="192.2" x2="69.9" y2="192.2"/>
	<rect x="9.2" y="23.3" class="st1" width="116.6" height="12"/>
	<rect x="9.2" y="46.8" class="st1" width="84.9" height="12"/>
	<rect x="9.2" y="92.5" class="st1" width="60" height="12"/>
	<rect x="9.2" y="159.3" class="st1" width="124" height="12"/>
	<rect x="9.2" y="113.5" class="st1" width="97.2" height="12"/>
	<rect x="9.6" y="208.2" class="st1" width="114.3" height="12"/>
</g>
<g id="Calque_2">
	<path d="M158.4,180h78c2,0,3.6-1.6,3.6-3.6v-122c0-2-1.6-3.6-3.6-3.6h-78c-2,0-3.6,1.6-3.6,3.6v122
		C154.8,178.4,156.4,180,158.4,180z"/>
</g>
</svg>
